<?xml version="1.0" encoding="iso-8859-1"?>
<!-- Generator: Adobe Illustrator 18.0.0, SVG Export Plug-In . SVG Version: 6.00 Build 0)  -->
<!DOCTYPE svg PUBLIC "-//W3C//DTD SVG 1.1//EN" "http://www.w3.org/Graphics/SVG/1.1/DTD/svg11.dtd">
<svg version="1.1" id="Capa_1" xmlns="http://www.w3.org/2000/svg" xmlns:xlink="http://www.w3.org/1999/xlink" x="0px" y="0px"
	 viewBox="0 0 187.957 187.957" style="enable-background:new 0 0 187.957 187.957;" xml:space="preserve">
<g>
	<path d="M180.457,180.192c4.143,0,7.5-3.357,7.5-7.5c0-0.721-0.101-1.418-0.291-2.078L163.069,52.233
		c-0.723-3.48-3.789-5.975-7.343-5.975h-54.258V22.765h78.969c4.143,0,7.5-3.357,7.5-7.5c0-4.142-3.357-7.5-7.5-7.5H93.969H7.5
		c-4.143,0-7.5,3.358-7.5,7.5c0,4.143,3.357,7.5,7.5,7.5h78.969v23.494h-54.26c-3.554,0-6.62,2.494-7.343,5.975L0.157,171.167
		c-0.46,2.209,0.101,4.508,1.525,6.259c1.424,1.75,3.56,2.767,5.817,2.767h172.938C180.443,180.192,180.451,180.192,180.457,180.192
		z M16.719,165.192L38.311,61.259h55.658h55.656l21.594,103.934H16.719z"/>
	<path d="M93.969,68.931c-24.424,0-44.295,19.871-44.295,44.295c0,24.424,19.871,44.295,44.295,44.295
		c24.423,0,44.293-19.871,44.293-44.295C138.262,88.802,118.392,68.931,93.969,68.931z M93.969,142.521
		c-16.153,0-29.295-13.142-29.295-29.295s13.142-29.295,29.295-29.295c16.152,0,29.293,13.142,29.293,29.295
		S110.121,142.521,93.969,142.521z"/>
	<path d="M93.969,88.579c-3.452,0-6.25,2.798-6.25,6.25v18.396c0,3.452,2.798,6.25,6.25,6.25c3.452,0,6.25-2.798,6.25-6.25V94.829
		C100.219,91.377,97.421,88.579,93.969,88.579z"/>
</g>
<g>
</g>
<g>
</g>
<g>
</g>
<g>
</g>
<g>
</g>
<g>
</g>
<g>
</g>
<g>
</g>
<g>
</g>
<g>
</g>
<g>
</g>
<g>
</g>
<g>
</g>
<g>
</g>
<g>
</g>
</svg>
