<?xml version="1.0" encoding="iso-8859-1"?>
<!-- Generator: Adobe Illustrator 16.0.0, SVG Export Plug-In . SVG Version: 6.00 Build 0)  -->
<!DOCTYPE svg PUBLIC "-//W3C//DTD SVG 1.1//EN" "http://www.w3.org/Graphics/SVG/1.1/DTD/svg11.dtd">
<svg version="1.1" id="Capa_1" xmlns="http://www.w3.org/2000/svg" xmlns:xlink="http://www.w3.org/1999/xlink" x="0px" y="0px"
	 width="34.043px" height="34.043px" viewBox="0 0 34.043 34.043" style="enable-background:new 0 0 34.043 34.043;"
	 xml:space="preserve">
<g>
	<g>
		<path d="M23.21,14.412l-12.376,0.015c-0.004-2.507,1.723-3.541,4.13-3.869l1.387,2.71l0.217-1.764l-0.342-0.282h0.758h0.828
			l-0.342,0.279l0.223,1.763l1.381-2.713C21.479,10.875,23.209,11.903,23.21,14.412z M14.422,7.489
			c0.007-0.001,0.013-0.008,0.02-0.011c0.417,1.502,1.493,2.625,2.583,2.648c0.995-0.047,2.213-1.152,2.62-2.646
			c0.188,0.01,0.373-0.21,0.426-0.519c0.055-0.319-0.062-0.605-0.254-0.639c-0.014-0.002-0.023,0.006-0.037,0.007
			c-0.059-2.475-1.232-3.343-2.712-3.378c-1.524,0.009-2.889,1.07-2.799,3.386c-0.014-0.002-0.028-0.009-0.043-0.008
			c-0.191,0.033-0.305,0.318-0.251,0.64C14.028,7.291,14.229,7.522,14.422,7.489z M8.238,27.217L6.857,29.93l-0.222-1.763
			l0.342-0.28H6.15l-0.758,0.002l0.343,0.28l-0.217,1.763l-1.387-2.709C1.724,27.551-0.004,28.584,0,31.092l12.376-0.016
			C12.376,28.57,10.645,27.542,8.238,27.217z M3.589,24.154c0.007,0,0.013-0.006,0.02-0.01c0.416,1.502,1.493,2.625,2.583,2.648
			c0.994-0.047,2.214-1.152,2.62-2.646c0.188,0.01,0.373-0.211,0.426-0.519c0.054-0.319-0.062-0.606-0.255-0.64
			c-0.013-0.002-0.023,0.006-0.035,0.008c-0.061-2.475-1.234-3.344-2.715-3.379c-1.523,0.01-2.889,1.07-2.799,3.386
			c-0.015-0.001-0.028-0.009-0.044-0.007c-0.19,0.033-0.305,0.318-0.251,0.639C3.195,23.957,3.396,24.188,3.589,24.154z
			 M29.904,27.217l-1.381,2.713l-0.222-1.763l0.343-0.28h-0.828l-0.758,0.002l0.342,0.28l-0.217,1.763l-1.387-2.709
			c-2.406,0.328-4.134,1.361-4.13,3.869l12.376-0.016C34.043,28.57,32.311,27.542,29.904,27.217z M25.255,24.154
			c0.007,0,0.013-0.006,0.021-0.01c0.416,1.502,1.492,2.625,2.582,2.648c0.996-0.047,2.215-1.152,2.621-2.646
			c0.188,0.01,0.373-0.211,0.426-0.519c0.055-0.319-0.062-0.606-0.254-0.64c-0.014-0.002-0.023,0.006-0.037,0.008
			c-0.059-2.475-1.231-3.344-2.713-3.379c-1.523,0.01-2.89,1.07-2.801,3.386c-0.014-0.001-0.027-0.009-0.043-0.007
			c-0.19,0.033-0.306,0.318-0.25,0.639C24.861,23.957,25.061,24.188,25.255,24.154z M17.522,21.15v-5.16h-1v5.16l-5.568,3.215
			l0.5,0.865l5.568-3.215l5.568,3.215l0.5-0.865L17.522,21.15z"/>
	</g>
</g>
<g>
</g>
<g>
</g>
<g>
</g>
<g>
</g>
<g>
</g>
<g>
</g>
<g>
</g>
<g>
</g>
<g>
</g>
<g>
</g>
<g>
</g>
<g>
</g>
<g>
</g>
<g>
</g>
<g>
</g>
</svg>
