<?xml version="1.0" encoding="utf-8"?>
<!-- Generator: Adobe Illustrator 19.0.1, SVG Export Plug-In . SVG Version: 6.00 Build 0)  -->
<svg version="1.1" id="Layer_1" xmlns="http://www.w3.org/2000/svg" xmlns:xlink="http://www.w3.org/1999/xlink" x="0px" y="0px"
	 viewBox="0 0 45.5 45.4" style="enable-background:new 0 0 45.5 45.4;" xml:space="preserve">
<style type="text/css">
	.st0{fill:none;stroke:#FFFFFF;stroke-width:5;stroke-miterlimit:10;}
	.st1{fill:#FFFFFF;}
</style>
<circle class="st0" cx="22.8" cy="22.7" r="20.2"/>
<path class="st1" d="M33.9,20.8c-0.2-0.2-0.5-0.3-0.8-0.3h-2.3h-5.8h-4.6h-4.8h-3.2c-0.3,0-0.6,0.1-0.8,0.3
	c-0.2,0.2-0.3,0.5-0.3,0.8v2.3c0,0.3,0.1,0.6,0.3,0.8c0.2,0.2,0.5,0.3,0.8,0.3h5.7h2.3h4.6h3.4h4.7c0.3,0,0.6-0.1,0.8-0.3
	c0.2-0.2,0.3-0.5,0.3-0.8v-2.3C34.3,21.3,34.2,21,33.9,20.8z"/>
<path class="st1" d="M20.8,11.5c-0.2,0.2-0.3,0.5-0.3,0.8v2.3v5.8V25v4.8v3.2c0,0.3,0.1,0.6,0.3,0.8c0.2,0.2,0.5,0.3,0.8,0.3h2.3
	c0.3,0,0.6-0.1,0.8-0.3c0.2-0.2,0.3-0.5,0.3-0.8v-5.7V25v-4.6V17v-4.7c0-0.3-0.1-0.6-0.3-0.8c-0.2-0.2-0.5-0.3-0.8-0.3h-2.3
	C21.3,11.2,21,11.3,20.8,11.5z"/>
</svg>
