<?xml version="1.0" encoding="utf-8"?>
<!-- Generator: Adobe Illustrator 19.0.1, SVG Export Plug-In . SVG Version: 6.00 Build 0)  -->
<svg version="1.1" id="Layer_1" xmlns="http://www.w3.org/2000/svg" xmlns:xlink="http://www.w3.org/1999/xlink" x="0px" y="0px"
	 viewBox="0 0 44.8 35.4" style="enable-background:new 0 0 44.8 35.4;" xml:space="preserve">
<style type="text/css">
	.st0{fill:#72A441;}
</style>
<g>
	<path class="st0" d="M11.4,14.6l-0.6-0.4c-0.5-0.3-0.7-1-0.4-1.5l7.1-12.2c0.3-0.5,1-0.7,1.5-0.4l0.6,0.4c0.5,0.3,0.7,1,0.4,1.5
		l-7.1,12.2C12.5,14.7,11.9,14.9,11.4,14.6z"/>
	<g>
		<path class="st0" d="M42.4,11.5h-7.7l0.3,0.6c0.6,1.1,0.3,2.5-0.8,3.2c-1.1,0.6-2.5,0.3-3.2-0.8l-1.7-2.9h-14l-1.7,2.9
			c-0.6,1.1-2.1,1.5-3.2,0.8c-1.1-0.6-1.5-2.1-0.8-3.2l0.3-0.6H2.4c-1.3,0-2.4,1.1-2.4,2.4c0,1.3,1.1,2.4,2.4,2.4h0.8L6,30.1
			c0,2.9,2.3,5.2,5.2,5.2h22.2c2.9,0,5.2-2.3,5.2-5.2l2.9-13.8h0.8c1.3,0,2.4-1.1,2.4-2.4C44.8,12.6,43.7,11.5,42.4,11.5z M15,31.1
			c0,0.7-0.6,1.3-1.3,1.3c-0.7,0-1.3-0.6-1.3-1.3v-7.8c0-0.7,0.6-1.3,1.3-1.3c0.7,0,1.3,0.6,1.3,1.3V31.1z M20.4,31.1
			c0,0.7-0.6,1.3-1.3,1.3c-0.7,0-1.3-0.6-1.3-1.3v-7.8c0-0.7,0.6-1.3,1.3-1.3c0.7,0,1.3,0.6,1.3,1.3V31.1z M27.2,31.1
			c0,0.7-0.6,1.3-1.3,1.3c-0.7,0-1.3-0.6-1.3-1.3v-7.8c0-0.7,0.6-1.3,1.3-1.3c0.7,0,1.3,0.6,1.3,1.3V31.1z M32.6,31.1
			c0,0.7-0.6,1.3-1.3,1.3c-0.7,0-1.3-0.6-1.3-1.3v-7.8c0-0.7,0.6-1.3,1.3-1.3c0.7,0,1.3,0.6,1.3,1.3V31.1z"/>
		<path class="st0" d="M33.4,14.6l0.6-0.4c0.5-0.3,0.7-1,0.4-1.5L27.4,0.5c-0.3-0.5-1-0.7-1.5-0.4l-0.6,0.4c-0.5,0.3-0.7,1-0.4,1.5
			l7.1,12.2C32.2,14.7,32.9,14.9,33.4,14.6z"/>
	</g>
</g>
</svg>
