<?xml version="1.0" encoding="utf-8"?>
<!-- Generator: Adobe Illustrator 19.0.1, SVG Export Plug-In . SVG Version: 6.00 Build 0)  -->
<svg version="1.1" id="Layer_1" xmlns="http://www.w3.org/2000/svg" xmlns:xlink="http://www.w3.org/1999/xlink" x="0px" y="0px"
	 viewBox="0 0 18.6 24.7" style="enable-background:new 0 0 18.6 24.7;" xml:space="preserve">
<style type="text/css">
	.st0{fill:#010101;}
</style>
<path class="st0" d="M10.8,12.1c0.8-0.4,1.4-0.9,1.9-1.5c0.5-0.6,0.9-1.2,1.2-1.9C14,8.6,14,8.5,14,8.4h3l1.5-2.3h-4.2
	c0-1.1-0.2-2-0.6-2.8c-0.2-0.4-0.4-0.8-0.7-1.1h4.1L18.6,0H1.2L0,2.3h5.4c1.8,0,3.2,0.4,4.1,1.1C10.4,4.1,10.9,5,11,6.1H1.2L0,8.4
	h10.6c0,0,0,0.1-0.1,0.1c-0.3,0.6-0.7,1.1-1.2,1.5c-0.5,0.4-1.1,0.7-1.8,1c-0.7,0.2-1.4,0.3-2.3,0.3H0.9V14h2.7
	c0.6,0,1.1,0.1,1.6,0.2c0.5,0.1,0.9,0.3,1.4,0.6C7,15.1,7.4,15.5,7.8,16c0.4,0.5,0.8,1,1.2,1.7l4.6,7h3.9l-5.2-7.5
	c-0.4-0.5-0.7-1-1-1.4c-0.3-0.4-0.6-0.8-0.9-1.1c-0.3-0.3-0.6-0.6-1-0.8c-0.3-0.2-0.7-0.5-1.2-0.6V13C9.2,12.8,10,12.5,10.8,12.1z"
	/>
</svg>
