<?xml version="1.0" encoding="iso-8859-1"?>
<!-- Generator: Adobe Illustrator 16.0.0, SVG Export Plug-In . SVG Version: 6.00 Build 0)  -->
<!DOCTYPE svg PUBLIC "-//W3C//DTD SVG 1.1//EN" "http://www.w3.org/Graphics/SVG/1.1/DTD/svg11.dtd">
<svg version="1.1" id="Capa_1" xmlns="http://www.w3.org/2000/svg" xmlns:xlink="http://www.w3.org/1999/xlink" x="0px" y="0px"
	 width="676.176px" height="676.176px" viewBox="0 0 676.176 676.176" style="enable-background:new 0 0 676.176 676.176;"
	 xml:space="preserve">
<g>
	<path d="M676.167,388.971c0.014-0.719,0.01-1.439-0.009-2.16c0.084-10.703-3.603-21.498-11.08-32.633
		c-0.854-1.27-1.687-2.549-2.493-3.836c-7.784-13.96-12.798-28.542-13.426-45.662c-1.08-27.539-13.5-49.23-42.391-58.14
		c-0.634-0.192-1.244-0.417-1.866-0.627c-10.83-5.807-21.076-12.313-30.588-19.922c-4.56-4.436-8.864-9.194-13.086-14.01
		c-4.491-5.173-9.218-9.321-14.269-12.441c-9.685-7.664-21.959-10.02-35.692-6.55c-12.431,3.167-25.107,4.828-37.749,4.925
		c-12.641-0.097-25.317-1.758-37.749-4.925c-13.732-3.47-26.009-1.114-35.691,6.55c-5.052,3.12-9.777,7.268-14.27,12.441
		c-4.221,4.816-8.525,9.575-13.086,14.01c-9.511,7.61-19.757,14.116-30.588,19.922c-0.622,0.21-1.232,0.435-1.866,0.627
		c-28.89,8.91-41.31,30.601-42.39,58.14c-0.628,17.119-5.643,31.701-13.425,45.662c-0.808,1.287-1.64,2.566-2.494,3.836
		c-7.479,11.135-11.164,21.93-11.08,32.633c-0.019,0.721-0.022,1.441-0.009,2.16c-0.01,0.555-0.012,1.107-0.002,1.662
		c-0.115,10.738,3.571,21.496,11.079,32.758c0.627,0.934,1.239,1.873,1.843,2.816c8.112,14.271,13.365,29.145,14.008,46.682
		c1.08,27.541,13.5,49.23,42.391,58.143c0.772,0.232,1.521,0.504,2.274,0.764c10.359,5.57,20.191,11.771,29.347,18.984
		c4.87,4.658,9.442,9.703,13.919,14.811c4.677,5.389,9.611,9.656,14.899,12.816c9.608,7.367,21.708,9.59,35.218,6.176
		c12.405-3.16,25.057-4.822,37.671-4.926c12.614,0.104,25.266,1.766,37.671,4.926c13.511,3.414,25.608,1.191,35.218-6.176
		c5.288-3.16,10.224-7.43,14.899-12.816c4.478-5.105,9.049-10.15,13.919-14.811c9.154-7.213,18.986-13.414,29.347-18.984
		c0.755-0.26,1.503-0.529,2.274-0.764c28.891-8.91,41.311-30.602,42.391-58.143c0.645-17.535,5.896-32.41,14.01-46.682
		c0.604-0.943,1.216-1.883,1.843-2.816c7.508-11.262,11.194-22.02,11.079-32.758C676.179,390.078,676.177,389.525,676.167,388.971z
		 M474.201,546.238c-0.229,0.006-0.454,0.004-0.683,0.008c-0.228-0.004-0.454-0.002-0.682-0.008
		c-17.501-0.072-34.558-2.959-50.619-8.252c-61.69-21.52-107.629-82.143-108.128-148.617c-0.006-0.729,0.005-1.451,0.008-2.176
		c0.95-65.966,46.569-125.994,107.786-147.5c16.163-5.366,33.34-8.292,50.967-8.365c0.225-0.005,0.445-0.002,0.668-0.007
		c0.224,0.004,0.444,0.001,0.668,0.007c17.627,0.074,34.805,2.999,50.968,8.365c61.217,21.506,106.836,81.534,107.784,147.5
		c0.005,0.725,0.016,1.447,0.01,2.176c-0.498,66.475-46.438,127.1-108.128,148.617C508.758,543.279,491.702,546.166,474.201,546.238
		z"/>
	<path d="M564.104,462.646c0-6.479,0.092-12.146,0-17.729c-0.54-24.029-8.011-32.039-31.229-34.469
		c-0.72-0.094-1.53-0.184-2.25-0.184c-6.84-0.539-14.939-2.16-19.71-6.479c-8.82-7.92-12.149-18.539-6.3-30.689
		c4.5-9.358,7.83-19.26,12.06-28.801c9.99-22.589,1.08-41.669-13.319-57.688c-8.278-9.271-17.908-13.41-27.358-13.141
		c-9.45-0.27-19.08,3.87-27.36,13.141c-14.397,16.02-23.31,35.1-13.319,57.688c4.229,9.541,7.562,19.44,12.062,28.801
		c5.851,12.062,2.521,22.771-6.3,30.689c-4.771,4.229-12.87,5.85-19.71,6.479c-0.812,0.09-1.53,0.184-2.25,0.184
		c-23.13,2.43-30.69,10.527-31.229,34.469c-0.091,5.67-0.091,11.43,0,18c0,1.711,0,3.51,0,5.4l0,0l0,0c29.88,0,59.13,0,88.199,0
		c29.07,0,58.32,0,88.2,0l0,0l0,0C564.104,466.338,564.104,464.447,564.104,462.646z"/>
	<rect x="258.188" y="524.1" width="25.2" height="25.199"/>
	<path d="M269.55,303.641c0.778-19.841,6.068-36.996,15.726-51.063c10.833-15.777,26.524-26.923,46.64-33.126l0.116-0.036
		c12.036-3.656,21.809-13.97,32.422-26.076c5.662-6.512,11.746-11.937,18.219-16.281c0.777-1.073,1.559-2.152,2.348-3.239
		c-26.371-28.26-52.021-55.53-78.479-83.79C286.47,111.63,172.89,243.21,152.01,258.87v-36.72H77.76v120.87
		c-0.72,0.988-59.4,70.199-77.76,93.602h75.15V572.25c3.42-3.061,6.48-5.76,9.18-8.818c49.95-55.17,101.25-109.08,148.77-166.318
		c3.479-4.178,6.623-8.637,9.532-13.289c0.793-14.142,5.52-28.324,14.103-42.26C265.257,327.798,269.079,316.476,269.55,303.641z"/>
	<path d="M258.363,439.113c-3.374-5.062-6.212-10.158-8.514-15.279L117.655,572.248h53.329l98.307-109.834
		c-2.25-8.02-5.897-15.818-10.866-23.207L258.363,439.113z"/>
	<path d="M257.918,487.559v25.201h20.117c-3.441-7.764-5.491-16.227-6.022-25.201H257.918z"/>
	<path d="M303.188,549.299h10.917c-3.883-1.936-7.523-4.102-10.917-6.471V549.299z"/>
</g>
<g>
</g>
<g>
</g>
<g>
</g>
<g>
</g>
<g>
</g>
<g>
</g>
<g>
</g>
<g>
</g>
<g>
</g>
<g>
</g>
<g>
</g>
<g>
</g>
<g>
</g>
<g>
</g>
<g>
</g>
</svg>
